HIERARCHY
ROOT hip
{
	OFFSET 0.000000 0.000000 0.000000 
	CHANNELS 6 Xposition Yposition Zposition Xrotation Zrotation Yrotation
	JOINT abdomen
	{
		OFFSET 0.000000 3.402643 0.000000 
		CHANNELS 3 Xrotation Zrotation Yrotation
		JOINT chest
		{
			OFFSET 0.000000 8.438565 -0.680529 
			CHANNELS 3 Xrotation Zrotation Yrotation
			JOINT neck
			{
				OFFSET 0.000000 10.207942 -0.272212 
				CHANNELS 3 Xrotation Zrotation Yrotation
				JOINT head
				{
					OFFSET 0.000000 3.130431 0.000000 
					CHANNELS 3 Xrotation Zrotation Yrotation
					End Site
					{
						OFFSET 0.000000 3.130435 0.000000 
					}
				}
			}
			JOINT lCollar
			{
				OFFSET 3.470700 6.669187 -0.816635 
				CHANNELS 3 Yrotation Zrotation Xrotation
				JOINT lShldr
				{
					OFFSET 3.198488 0.000000 0.000000 
					CHANNELS 3 Zrotation Yrotation Xrotation
					JOINT lForeArm
					{
						OFFSET 10.139888 0.000000 0.000000 
						CHANNELS 3 Yrotation Zrotation Xrotation
						JOINT lHand
						{
							OFFSET 8.370511 0.000000 0.000000 
							CHANNELS 3 Zrotation Yrotation Xrotation
							End Site
							{
								OFFSET 4.083176 0.000000 0.000000 
							}
						}
					}
				}
			}
			JOINT rCollar
			{
				OFFSET -3.470700 6.669187 -0.816635 
				CHANNELS 3 Yrotation Zrotation Xrotation
				JOINT rShldr
				{
					OFFSET -3.198488 0.000000 0.000000 
					CHANNELS 3 Zrotation Yrotation Xrotation
					JOINT rForeArm
					{
						OFFSET -10.139888 0.000000 0.000000 
						CHANNELS 3 Yrotation Zrotation Xrotation
						JOINT rHand
						{
							OFFSET -8.370511 0.000000 0.000000 
							CHANNELS 3 Zrotation Yrotation Xrotation
							End Site
							{
								OFFSET -4.083176 0.000000 0.000000 
							}
						}
					}
				}
			}
		}
	}
	JOINT lThigh
	{
		OFFSET 5.308129 -1.633274 1.361059 
		CHANNELS 3 Xrotation Zrotation Yrotation
		JOINT lShin
		{
			OFFSET -2.041588 -20.007561 0.000000 
			CHANNELS 3 Xrotation Zrotation Yrotation
			JOINT lFoot
			{
				OFFSET 0.000000 -19.190928 -1.224953 
				CHANNELS 3 Xrotation Yrotation Zrotation
				End Site
				{
					OFFSET 0.000000 -2.449906 4.627600 
				}
			}
		}
	}
	JOINT rThigh
	{
		OFFSET -5.308129 -1.633274 1.361059 
		CHANNELS 3 Xrotation Zrotation Yrotation
		JOINT rShin
		{
			OFFSET 2.041588 -20.007561 0.000000 
			CHANNELS 3 Xrotation Zrotation Yrotation
			JOINT rFoot
			{
				OFFSET 0.000000 -19.190928 -1.224953 
				CHANNELS 3 Xrotation Yrotation Zrotation
				End Site
				{
					OFFSET 0.000000 -2.449906 4.627600 
				}
			}
		}
	}
}
MOTION
Frames: 6
Frame Time: 0.033333
-3.289970 48.705784 3.251799 -6.865234 0.166016 -2.832031 -3.222656 -5.478516 -7.626953 10.126953 0.888672 0.000151 0.585938 -4.677734 -0.117188 -0.458984 1.982422 8.398438 0.615234 -1.269531 -0.068143 -63.730465 -28.955078 9.516757 -104.472656 -6.826172 -27.899227 15.976563 -23.574221 -10.107423 -2.041015 1.669922 -0.078410 60.625000 22.109373 -14.062499 90.146484 15.966799 -33.837887 5.898438 22.744141 -10.894662 -12.746369 9.349987 0.114158 41.708527 -4.621472 -3.834641 -3.557721 -0.937486 -4.024410 -2.708902 -2.884452 0.723727 25.047861 4.335758 1.805425 -15.497802 1.818221 -2.525556 
-3.301625 48.662308 3.532179 -6.582031 0.107422 -2.656249 -1.494141 -4.296875 -4.834046 9.267578 0.703125 0.000000 0.703125 -3.193359 0.009766 -1.474609 1.230469 6.191406 0.615234 -1.269531 -0.068143 -62.783203 -30.419924 6.284117 -99.736328 -11.308593 -26.863317 12.412109 -23.310547 -9.570313 -2.041015 1.669922 -0.078410 61.904301 24.765625 -10.581845 86.484375 13.798829 -34.628906 2.441406 22.343750 -11.353710 -20.074421 9.939418 -0.876832 51.960770 -5.044786 -4.958760 9.184082 -2.270144 -2.583993 -3.397196 -2.957942 0.816236 26.598209 4.389526 1.842806 -16.665710 1.710991 -2.387607 
-3.323540 48.565132 4.143853 -5.996094 -0.039063 -2.314460 0.341797 -3.037107 -1.807160 8.369141 0.478516 0.009847 0.810547 -1.630859 0.146484 -2.578125 0.449219 3.828125 0.615234 -1.269531 -0.068143 -61.748047 -31.933594 2.787804 -94.726563 -16.103516 -25.846901 8.642579 -23.017578 -9.046788 -2.041015 1.669922 -0.078410 63.203129 27.529297 -6.860719 82.626953 11.494141 -35.410156 -1.279297 21.884766 -11.835938 -25.154474 10.243357 -2.590583 57.347252 -5.931880 -5.612235 19.733631 -2.362166 -1.699282 -3.567961 -2.866286 0.958505 27.294191 4.443437 1.589669 -17.756075 1.559836 -2.232018 
-3.348915 48.419746 5.032120 -5.166015 -0.224609 -1.835976 2.226563 -1.708984 1.337599 7.412108 0.273438 0.009766 0.947266 0.000000 0.273438 -3.730468 -0.361328 1.357360 0.615234 -1.269531 -0.068143 -60.673828 -33.505859 -0.825702 -89.501953 -21.064453 -24.781647 4.755859 -22.705078 -8.490098 -2.041015 1.669922 -0.078410 64.580078 30.390627 -3.002871 78.613281 9.121094 -36.220703 -5.126953 21.416014 -12.330419 -30.411753 10.671542 -4.066016 62.375652 -6.772474 -6.530774 27.925711 -2.343997 -0.881020 -3.629936 -2.693225 0.980246 27.975437 4.467577 1.310377 -19.166809 1.458327 -2.025216 
-3.370962 48.231647 6.142281 -4.169922 -0.458984 -1.259844 4.150391 -0.410156 4.453060 6.464844 0.058594 0.009776 1.054688 1.630862 0.420203 -4.863281 -1.191424 -1.084170 0.615234 -1.269531 -0.068143 -59.628902 -35.146488 -4.429450 -84.140625 -26.054689 -23.579697 0.781250 -22.373001 -7.884559 -2.041015 1.669922 -0.078410 65.976563 33.349609 0.849611 74.511719 6.699219 -37.090984 -8.964844 20.917971 -12.838308 -35.834412 11.238686 -5.094717 67.258308 -7.506868 -7.645143 33.409115 -2.208671 0.124558 -3.572319 -2.498648 0.939959 28.664333 4.525203 0.962603 -20.928806 1.349754 -1.843297 
-3.382885 48.006306 7.419635 -3.085937 -0.712891 -0.654418 6.123047 0.849596 7.431935 5.527344 -0.146484 0.019506 1.162109 3.232422 0.557191 -5.888671 -2.021484 -3.457376 0.615234 -1.269531 -0.068143 -58.642578 -36.835938 -7.896480 -78.740234 -30.966801 -22.153177 -3.193360 -22.031250 -7.207031 -2.041015 1.669922 -0.078410 67.431633 36.376957 4.638672 70.400391 4.306641 -38.047611 -12.705077 20.449219 -13.326665 -40.902714 11.951857 -5.674421 70.942337 -8.190393 -8.626861 36.136192 -2.034567 1.307647 -3.275499 -2.261773 0.864942 29.205767 4.565011 0.647132 -22.837151 1.224431 -1.638552 
